%TF.GenerationSoftware,KiCad,Pcbnew,8.0.2-1*%
%TF.CreationDate,2024-05-29T18:32:06-05:00*%
%TF.ProjectId,HW11,48573131-2e6b-4696-9361-645f70636258,rev?*%
%TF.SameCoordinates,Original*%
%TF.FileFunction,Legend,Top*%
%TF.FilePolarity,Positive*%
%FSLAX46Y46*%
G04 Gerber Fmt 4.6, Leading zero omitted, Abs format (unit mm)*
G04 Created by KiCad (PCBNEW 8.0.2-1) date 2024-05-29 18:32:06*
%MOMM*%
%LPD*%
G01*
G04 APERTURE LIST*
%ADD10C,0.150000*%
%ADD11C,0.120000*%
G04 APERTURE END LIST*
D10*
X119214285Y-93326009D02*
X119357142Y-93373628D01*
X119357142Y-93373628D02*
X119404761Y-93421247D01*
X119404761Y-93421247D02*
X119452380Y-93516485D01*
X119452380Y-93516485D02*
X119452380Y-93659342D01*
X119452380Y-93659342D02*
X119404761Y-93754580D01*
X119404761Y-93754580D02*
X119357142Y-93802200D01*
X119357142Y-93802200D02*
X119261904Y-93849819D01*
X119261904Y-93849819D02*
X118880952Y-93849819D01*
X118880952Y-93849819D02*
X118880952Y-92849819D01*
X118880952Y-92849819D02*
X119214285Y-92849819D01*
X119214285Y-92849819D02*
X119309523Y-92897438D01*
X119309523Y-92897438D02*
X119357142Y-92945057D01*
X119357142Y-92945057D02*
X119404761Y-93040295D01*
X119404761Y-93040295D02*
X119404761Y-93135533D01*
X119404761Y-93135533D02*
X119357142Y-93230771D01*
X119357142Y-93230771D02*
X119309523Y-93278390D01*
X119309523Y-93278390D02*
X119214285Y-93326009D01*
X119214285Y-93326009D02*
X118880952Y-93326009D01*
X119738095Y-92849819D02*
X120309523Y-92849819D01*
X120023809Y-93849819D02*
X120023809Y-92849819D01*
X121166666Y-93849819D02*
X120595238Y-93849819D01*
X120880952Y-93849819D02*
X120880952Y-92849819D01*
X120880952Y-92849819D02*
X120785714Y-92992676D01*
X120785714Y-92992676D02*
X120690476Y-93087914D01*
X120690476Y-93087914D02*
X120595238Y-93135533D01*
X106191905Y-92794819D02*
X106191905Y-91794819D01*
X106191905Y-91794819D02*
X106430000Y-91794819D01*
X106430000Y-91794819D02*
X106572857Y-91842438D01*
X106572857Y-91842438D02*
X106668095Y-91937676D01*
X106668095Y-91937676D02*
X106715714Y-92032914D01*
X106715714Y-92032914D02*
X106763333Y-92223390D01*
X106763333Y-92223390D02*
X106763333Y-92366247D01*
X106763333Y-92366247D02*
X106715714Y-92556723D01*
X106715714Y-92556723D02*
X106668095Y-92651961D01*
X106668095Y-92651961D02*
X106572857Y-92747200D01*
X106572857Y-92747200D02*
X106430000Y-92794819D01*
X106430000Y-92794819D02*
X106191905Y-92794819D01*
X107715714Y-92794819D02*
X107144286Y-92794819D01*
X107430000Y-92794819D02*
X107430000Y-91794819D01*
X107430000Y-91794819D02*
X107334762Y-91937676D01*
X107334762Y-91937676D02*
X107239524Y-92032914D01*
X107239524Y-92032914D02*
X107144286Y-92080533D01*
X112333333Y-103084819D02*
X112000000Y-102608628D01*
X111761905Y-103084819D02*
X111761905Y-102084819D01*
X111761905Y-102084819D02*
X112142857Y-102084819D01*
X112142857Y-102084819D02*
X112238095Y-102132438D01*
X112238095Y-102132438D02*
X112285714Y-102180057D01*
X112285714Y-102180057D02*
X112333333Y-102275295D01*
X112333333Y-102275295D02*
X112333333Y-102418152D01*
X112333333Y-102418152D02*
X112285714Y-102513390D01*
X112285714Y-102513390D02*
X112238095Y-102561009D01*
X112238095Y-102561009D02*
X112142857Y-102608628D01*
X112142857Y-102608628D02*
X111761905Y-102608628D01*
X113285714Y-103084819D02*
X112714286Y-103084819D01*
X113000000Y-103084819D02*
X113000000Y-102084819D01*
X113000000Y-102084819D02*
X112904762Y-102227676D01*
X112904762Y-102227676D02*
X112809524Y-102322914D01*
X112809524Y-102322914D02*
X112714286Y-102370533D01*
D11*
%TO.C,BT1*%
X118670000Y-94395000D02*
X120000000Y-94395000D01*
X118670000Y-95725000D02*
X118670000Y-94395000D01*
X118670000Y-96995000D02*
X118670000Y-99595000D01*
X118670000Y-96995000D02*
X121330000Y-96995000D01*
X118670000Y-99595000D02*
X121330000Y-99595000D01*
X121330000Y-96995000D02*
X121330000Y-99595000D01*
%TO.C,D1*%
X104370000Y-94755000D02*
X104370000Y-97845000D01*
X104370000Y-94755170D02*
G75*
G02*
X109920000Y-96300462I2560000J-1544830D01*
G01*
X109920000Y-96299538D02*
G75*
G02*
X104370000Y-97844830I-2990000J-462D01*
G01*
X109430000Y-96300000D02*
G75*
G02*
X104430000Y-96300000I-2500000J0D01*
G01*
X104430000Y-96300000D02*
G75*
G02*
X109430000Y-96300000I2500000J0D01*
G01*
%TO.C,R1*%
X105920000Y-105000000D02*
X109230000Y-105000000D01*
X109230000Y-103630000D02*
X109230000Y-106370000D01*
X109230000Y-106370000D02*
X115770000Y-106370000D01*
X115770000Y-103630000D02*
X109230000Y-103630000D01*
X115770000Y-106370000D02*
X115770000Y-103630000D01*
X119080000Y-105000000D02*
X115770000Y-105000000D01*
%TD*%
M02*
